<?xml version="1.0" encoding="UTF-8"?>
<svg id="Layer_2" data-name="Layer 2" xmlns="http://www.w3.org/2000/svg" viewBox="0 0 497.07 156.19">
  <defs>
    <style>
      .cls-1 {
        fill: #55f5c3;
      }

      .cls-2 {
        fill: #fff;
      }
    </style>
  </defs>
  <g id="Layer_1-2" data-name="Layer 1">
    <g>
      <g>
        <path class="cls-2" d="M0,52.24h46.06c5.13,0,9.85.8,14.15,2.4,4.3,1.6,8,3.76,11.12,6.48,3.11,2.72,5.55,5.86,7.3,9.41,1.75,3.55,2.63,7.26,2.63,11.12,0,4.65-.69,9.01-2.07,13.06-1.38,4.06-3.52,7.58-6.42,10.56-2.9,2.98-6.56,5.34-10.99,7.07-4.43,1.73-9.67,2.6-15.73,2.6h-13.88v21.47h9.15v18.03H0v-18.03h10.33v-66.09H0v-18.1ZM32.18,70.34v26.78h9.02c5,0,8.97-1.05,11.91-3.16,2.94-2.11,4.41-5.44,4.41-10,0-4.25-1.38-7.59-4.15-10-2.76-2.41-6.82-3.62-12.17-3.62h-9.02Z"/>
        <path class="cls-2" d="M89.95,86.28h30.6v50.14h9.48v18.03h-40.07v-18.03h10.27v-32.11h-10.27v-18.03ZM99.16,64.3c0-1.62.3-3.15.89-4.57.59-1.43,1.41-2.67,2.47-3.72,1.05-1.05,2.29-1.89,3.72-2.5,1.42-.61,2.97-.92,4.64-.92,1.58,0,3.07.31,4.47.92,1.4.61,2.63,1.45,3.68,2.5,1.05,1.05,1.89,2.29,2.5,3.72.61,1.43.92,2.95.92,4.57s-.31,3.15-.92,4.57c-.62,1.43-1.45,2.66-2.5,3.72-1.05,1.05-2.28,1.89-3.68,2.5-1.4.62-2.89.92-4.47.92-1.67,0-3.21-.31-4.64-.92-1.43-.61-2.67-1.45-3.72-2.5-1.05-1.05-1.87-2.29-2.47-3.72-.59-1.43-.89-2.95-.89-4.57Z"/>
        <path class="cls-2" d="M140.55,52.07h30.73v84.36h10.53v18.03h-41.26v-18.03h10.53v-66.33h-10.53v-18.03Z"/>
        <path class="cls-2" d="M187.34,120.1c0-4.96.9-9.61,2.7-13.95,1.8-4.34,4.3-8.14,7.5-11.38,3.2-3.25,7.02-5.81,11.45-7.7,4.43-1.89,9.3-2.83,14.61-2.83s10.19.94,14.64,2.83c4.45,1.89,8.28,4.45,11.48,7.7,3.2,3.25,5.69,7.04,7.47,11.38,1.78,4.34,2.67,8.99,2.67,13.95s-.87,9.62-2.6,13.98c-1.73,4.36-4.19,8.18-7.37,11.45-3.18,3.27-7,5.85-11.45,7.73-4.45,1.89-9.4,2.83-14.84,2.83s-10.45-.94-14.9-2.83c-4.45-1.88-8.26-4.45-11.42-7.7-3.16-3.24-5.6-7.05-7.34-11.42-1.73-4.36-2.6-9.05-2.6-14.05ZM207.01,120.1c0,2.59.44,4.97,1.32,7.14.88,2.17,2.07,4.05,3.59,5.62,1.51,1.58,3.27,2.81,5.26,3.68,2,.88,4.13,1.32,6.41,1.32s4.48-.43,6.48-1.28c2-.86,3.73-2.07,5.2-3.65,1.47-1.58,2.62-3.46,3.45-5.63.83-2.17,1.25-4.57,1.25-7.21s-.42-5.18-1.25-7.37c-.83-2.19-1.98-4.06-3.45-5.59-1.47-1.54-3.2-2.71-5.2-3.52-2-.81-4.16-1.2-6.48-1.15-2.28-.04-4.42.34-6.41,1.15-2,.81-3.75,1.98-5.26,3.52-1.51,1.54-2.71,3.4-3.59,5.59-.88,2.19-1.32,4.65-1.32,7.37Z"/>
        <path class="cls-2" d="M295.52,86.28h13.62v17.24h-13.75l-.13,28.82c0,1.67.13,3.02.39,4.05.26,1.03.65,1.85,1.15,2.47.5.62,1.11,1.03,1.81,1.25.7.22,1.51.33,2.43.33,1.67,0,3.14-.16,4.41-.49s2.54-.71,3.82-1.15l2.83,12.7c-2.24,1.4-4.73,2.52-7.47,3.36-2.74.83-6,1.25-9.77,1.25-2.68,0-5.23-.46-7.67-1.38-2.43-.92-4.57-2.31-6.41-4.18-1.84-1.86-3.31-4.2-4.41-7.01-1.1-2.81-1.62-6.07-1.58-9.8l.2-30.2h-9.8v-17.24h9.87l.13-16.32,20.46-9.74-.13,26.06Z"/>
      </g>
      <g>
        <path class="cls-1" d="M413.91,51.82c-27.23,2.53-48.85,24.44-50.92,51.78-2.07-27.34-23.69-49.25-50.91-51.78,27.22-2.55,48.83-24.46,50.91-51.81,2.07,27.36,23.69,49.26,50.92,51.81Z"/>
        <path class="cls-2" d="M386.77,156.19v-1.95s0-49.42,0-49.42c0-16.15,13.09-29.24,29.24-29.24h28.68c12.88,0,23.87-10,24.35-22.87.51-13.53-10.35-24.71-23.77-24.71l-30.43.28c-15.47,0-28.02-12.54-28.02-28.02l57.53-.28c28.99,0,53.21,23.72,52.71,52.7-.48,28.15-23.53,50.9-51.8,50.9h-30.49v24.57c0,15.47-12.54,28.02-28.02,28.02Z"/>
      </g>
    </g>
  </g>
</svg>